<?xml version="1.0" encoding="UTF-8" standalone="no"?>

<svg
   width="407.37015mm"
   height="128.04546mm"
   viewBox="0 0 407.37015 128.04546"
   version="1.1"
   id="svg5"
   inkscape:version="1.2.2 (732a01da63, 2022-12-09)"
   sodipodi:docname="drawing.svg"
   xmlns:inkscape="http://www.inkscape.org/namespaces/inkscape"
   xmlns:sodipodi="http://sodipodi.sourceforge.net/DTD/sodipodi-0.dtd"
   xmlns="http://www.w3.org/2000/svg"
   xmlns:svg="http://www.w3.org/2000/svg">
  <sodipodi:namedview
     id="namedview7"
     pagecolor="#505050"
     bordercolor="#eeeeee"
     borderopacity="1"
     inkscape:showpageshadow="0"
     inkscape:pageopacity="0"
     inkscape:pagecheckerboard="0"
     inkscape:deskcolor="#505050"
     inkscape:document-units="mm"
     showgrid="false"
     inkscape:zoom="0.914906"
     inkscape:cx="1038.358"
     inkscape:cy="369.98336"
     inkscape:window-width="3440"
     inkscape:window-height="1361"
     inkscape:window-x="-9"
     inkscape:window-y="-9"
     inkscape:window-maximized="1"
     inkscape:current-layer="layer1" />
  <defs
     id="defs2">
    <clipPath
       id="clip0">
      <rect
         x="13"
         y="15"
         width="1540"
         height="485"
         id="rect9" />
    </clipPath>
  </defs>
  <g
     inkscape:label="Layer 1"
     inkscape:groupmode="layer"
     id="layer1"
     transform="translate(169.84962,-50.497233)">
    <g
       clip-path="url(#clip0)"
       transform="matrix(0.26458333,0,0,0.26458333,-173.3333,46.484386)"
       id="g156">
      <rect
         x="14"
         y="145"
         width="174"
         height="86"
         id="rect14" />
      <text
         fill="#ffffff"
         font-family="Calibri, Calibri_MSFontService, sans-serif"
         font-weight="400"
         font-size="20px"
         transform="translate(47.7413,183)"
         id="text16">Downsample</text>
      <text
         fill="#ffffff"
         font-family="Calibri, Calibri_MSFontService, sans-serif"
         font-weight="400"
         font-size="20px"
         transform="translate(54.8913,207)"
         id="text18">Color</text>
      <text
         fill="#ffffff"
         font-family="Calibri, Calibri_MSFontService, sans-serif"
         font-weight="400"
         font-size="20px"
         transform="translate(102.808,207)"
         id="text20">(SPD)</text>
      <rect
         x="1251"
         y="16"
         width="89"
         height="51"
         stroke="#000000"
         stroke-width="1.66667"
         stroke-miterlimit="8"
         id="rect22" />
      <text
         fill="#ffffff"
         font-family="Calibri, Calibri_MSFontService, sans-serif"
         font-weight="400"
         font-size="18px"
         transform="translate(1279.75,47)"
         id="text24">Pass</text>
      <rect
         x="1357"
         y="16"
         width="89"
         height="51"
         stroke="#000000"
         stroke-width="1.66667"
         stroke-miterlimit="8"
         fill="#ffffff"
         id="rect26" />
      <text
         font-family="Calibri, Calibri_MSFontService, sans-serif"
         font-weight="400"
         font-size="17px"
         transform="translate(1380.26,47)"
         id="text28">Buffer</text>
      <rect
         x="1290"
         y="144"
         width="175"
         height="86"
         stroke="#000000"
         stroke-width="1.66667"
         stroke-miterlimit="8"
         stroke-dasharray="6.66667, 5"
         fill="#ffffff"
         id="rect30" />
      <text
         font-family="Calibri, Calibri_MSFontService, sans-serif"
         font-weight="400"
         font-size="17px"
         transform="translate(1330.62,186)"
         id="text32">Output buffer</text>
      <text
         font-family="Calibri, Calibri_MSFontService, sans-serif"
         font-weight="400"
         font-size="12px"
         transform="translate(1320.94,201)"
         id="text34">APPLICATION</text>
      <text
         font-family="Calibri, Calibri_MSFontService, sans-serif"
         font-weight="400"
         font-size="12px"
         transform="translate(1386.98,201)"
         id="text36">SPECIFIED</text>
      <rect
         x="14"
         y="30"
         width="174"
         height="86"
         stroke="#000000"
         stroke-width="1.66667"
         stroke-miterlimit="8"
         stroke-dasharray="6.66667, 5"
         fill="#ffffff"
         id="rect38" />
      <text
         font-family="Calibri, Calibri_MSFontService, sans-serif"
         font-weight="400"
         font-size="17px"
         transform="translate(60.0953,65)"
         id="text40">Color</text>
      <text
         font-family="Calibri, Calibri_MSFontService, sans-serif"
         font-weight="400"
         font-size="17px"
         transform="translate(99.887,65)"
         id="text42">buffer</text>
      <text
         font-family="Calibri, Calibri_MSFontService, sans-serif"
         font-weight="400"
         font-size="12px"
         transform="translate(35.6203,80)"
         id="text44">APPLICATION</text>
      <text
         font-family="Calibri, Calibri_MSFontService, sans-serif"
         font-weight="400"
         font-size="12px"
         transform="translate(101.662,80)"
         id="text46">SPECIFIED</text>
      <text
         font-family="Calibri, Calibri_MSFontService, sans-serif"
         font-weight="400"
         font-size="12px"
         transform="translate(151.662,80)"
         id="text48">(3x</text>
      <text
         font-family="Calibri, Calibri_MSFontService, sans-serif"
         font-weight="400"
         font-size="12px"
         transform="translate(83.8454,94)"
         id="text50">FLOAT</text>
      <text
         font-family="Calibri, Calibri_MSFontService, sans-serif"
         font-weight="400"
         font-size="12px"
         transform="translate(114.262,94)"
         id="text52">)</text>
      <path
         d="m 104,116.5 v 16.039 H 99.0001 L 99,116.5 Z m 5,13.539 -7.5,15 -7.4999,-15 z"
         id="path54" />
      <rect
         x="14"
         y="259"
         width="174"
         height="86"
         stroke="#000000"
         stroke-width="1.66667"
         stroke-miterlimit="8"
         stroke-dasharray="6.66667, 5"
         fill="#ffffff"
         id="rect56" />
      <text
         font-family="Calibri, Calibri_MSFontService, sans-serif"
         font-weight="400"
         font-size="17px"
         transform="translate(57.2871,294)"
         id="text58">Depth buffer</text>
      <text
         font-family="Calibri, Calibri_MSFontService, sans-serif"
         font-weight="400"
         font-size="12px"
         transform="translate(35.6205,309)"
         id="text60">APPLICATION</text>
      <text
         font-family="Calibri, Calibri_MSFontService, sans-serif"
         font-weight="400"
         font-size="12px"
         transform="translate(101.662,309)"
         id="text62">SPECIFIED (1x</text>
      <text
         font-family="Calibri, Calibri_MSFontService, sans-serif"
         font-weight="400"
         font-size="12px"
         transform="translate(83.8455,323)"
         id="text64">FLOAT)</text>
      <path
         d="M 2.5,-1.17171e-5 2.50007,15.5004 h -5 L -2.5,1.17171e-5 Z M 7.50006,13.0004 l -7.499928766,15 -7.500071234,-15 z"
         transform="matrix(1,0,0,-1,101.5,259.5)"
         id="path66" />
      <rect
         x="120"
         y="387"
         width="175"
         height="86"
         id="rect68" />
      <text
         fill="#ffffff"
         font-family="Calibri, Calibri_MSFontService, sans-serif"
         font-weight="400"
         font-size="20px"
         transform="translate(154.26,425)"
         id="text70">Downsample</text>
      <text
         fill="#ffffff"
         font-family="Calibri, Calibri_MSFontService, sans-serif"
         font-weight="400"
         font-size="20px"
         transform="translate(182.502,449)"
         id="text72">Dept</text>
      <text
         fill="#ffffff"
         font-family="Calibri, Calibri_MSFontService, sans-serif"
         font-weight="400"
         font-size="20px"
         transform="translate(221.785,449)"
         id="text74">h</text>
      <path
         d="M 0.00178824,-2.5 32.0843,-2.47705 l -0.0035,5 L -0.00178824,2.5 Z M 29.5879,-7.47884 44.5825,0.0318898 29.5772,7.52116 Z"
         transform="matrix(1,0,0,-1,295.5,430.532)"
         id="path76" />
      <rect
         x="267"
         y="145"
         width="175"
         height="86"
         stroke="#000000"
         stroke-width="1.66667"
         stroke-miterlimit="8"
         fill="#ffffff"
         id="rect78" />
      <text
         font-family="Calibri, Calibri_MSFontService, sans-serif"
         font-weight="400"
         font-size="17px"
         transform="translate(318.528,187)"
         id="text80">Color</text>
      <text
         font-family="Calibri, Calibri_MSFontService, sans-serif"
         font-weight="400"
         font-size="17px"
         transform="translate(358.32,187)"
         id="text82">mips</text>
      <text
         font-family="Calibri, Calibri_MSFontService, sans-serif"
         font-weight="400"
         font-size="12px"
         transform="translate(293.111,202)"
         id="text84">4x R16G16B16A16_FLOAT</text>
      <rect
         x="339"
         y="387"
         width="175"
         height="86"
         stroke="#000000"
         stroke-width="1.66667"
         stroke-miterlimit="8"
         fill="#ffffff"
         id="rect86" />
      <text
         font-family="Calibri, Calibri_MSFontService, sans-serif"
         font-weight="400"
         font-size="18px"
         transform="translate(372.823,429)"
         id="text88">CoC tile buffer</text>
      <text
         font-family="Calibri, Calibri_MSFontService, sans-serif"
         font-weight="400"
         font-size="12px"
         transform="translate(389.798,445)"
         id="text90">R16G16_FLOAT</text>
      <path
         d="m 188.507,186 66.806,0.18 -0.013,5 -66.807,-0.18 z m 64.32,-4.826 14.979,7.54 -15.02,7.46 z"
         id="path92" />
      <path
         d="m 188.5,300 h 21.801 v 75.485 h -5 V 302.5 l 2.5,2.5 H 188.5 Z m 26.801,72.985 -7.5,15 -7.5,-15 z"
         id="path94" />
      <rect
         x="267"
         y="258"
         width="175"
         height="86"
         id="rect96" />
      <text
         fill="#ffffff"
         font-family="Calibri, Calibri_MSFontService, sans-serif"
         font-weight="400"
         font-size="20px"
         transform="translate(330.915,308)"
         id="text98">Dilate</text>
      <path
         d="m 0,-2.5 h 23.8008 v 74.295 l -2.5,-2.5 h 8.8006 v 5 H 18.8008 V 0 l 2.5,2.5 H 0 Z m 27.6014,66.795 15,7.5 -15,7.5 z"
         transform="matrix(0,-1,-1,0,427.295,387.102)"
         id="path100" />
      <rect
         x="521"
         y="259"
         width="175"
         height="86"
         stroke="#000000"
         stroke-width="1.66667"
         stroke-miterlimit="8"
         fill="#ffffff"
         id="rect102" />
      <text
         font-family="Calibri, Calibri_MSFontService, sans-serif"
         font-weight="400"
         font-size="18px"
         transform="translate(565.082,301)"
         id="text104">Dilated CoC</text>
      <text
         font-family="Calibri, Calibri_MSFontService, sans-serif"
         font-weight="400"
         font-size="12px"
         transform="translate(571.748,317)"
         id="text106">R16G16_FLOAT</text>
      <path
         d="m 442.505,299 66.807,0.134 -0.01,5 L 442.495,304 Z m 64.317,-4.871 14.985,7.531 -15.015,7.469 z"
         id="path108" />
      <rect
         x="775"
         y="145"
         width="174"
         height="85"
         stroke="#000000"
         stroke-width="1.66667"
         stroke-miterlimit="8"
         fill="#ffffff"
         id="rect110" />
      <text
         font-family="Calibri, Calibri_MSFontService, sans-serif"
         font-weight="400"
         font-size="18px"
         transform="translate(815.281,186)"
         id="text112">Blurred near</text>
      <text
         font-family="Calibri, Calibri_MSFontService, sans-serif"
         font-weight="400"
         font-size="12px"
         transform="translate(807.364,202)"
         id="text114">R16G16B16A16_FLOAT</text>
      <rect
         x="521"
         y="145"
         width="175"
         height="86"
         id="rect116" />
      <text
         fill="#ffffff"
         font-family="Calibri, Calibri_MSFontService, sans-serif"
         font-weight="400"
         font-size="20px"
         transform="translate(591.957,195)"
         id="text118">Blur</text>
      <path
         d="M 0.00574201,-2.49999 66.8123,-2.34655 66.8008,2.65344 -0.00574201,2.49999 Z M 64.3238,-7.35228 79.3066,0.182152 64.2894,7.64768 Z"
         transform="matrix(1,0,0,-1,442.5,188.682)"
         id="path120" />
      <path
         d="M 606,259.437 V 244 h 5 v 15.437 z m -5,-12.937 7.5,-15 7.5,15 z"
         id="path122" />
      <rect
         x="775"
         y="259"
         width="174"
         height="86"
         stroke="#000000"
         stroke-width="1.66667"
         stroke-miterlimit="8"
         fill="#ffffff"
         id="rect124" />
      <text
         font-family="Calibri, Calibri_MSFontService, sans-serif"
         font-weight="400"
         font-size="18px"
         transform="translate(821.847,301)"
         id="text126">Blurred far</text>
      <text
         font-family="Calibri, Calibri_MSFontService, sans-serif"
         font-weight="400"
         font-size="12px"
         transform="translate(807.364,317)"
         id="text128">R16G16B16A16_FLOAT</text>
      <path
         d="M 0.00775256,-2.49999 66.8141,-2.29282 66.7986,2.70716 -0.00775256,2.49999 Z M 64.3296,-7.30055 79.3063,0.245932 64.2831,7.69938 Z"
         transform="matrix(1,0,0,-1,696.5,187.746)"
         id="path130" />
      <path
         d="m 696.5,186 h 42.153 v 116.705 l -2.5,-2.5 h 27.153 v 5 H 733.653 V 188.5 l 2.5,2.5 H 696.5 Z m 64.306,109.205 15,7.5 -15,7.5 z"
         id="path132" />
      <rect
         x="1037"
         y="144"
         width="174"
         height="86"
         id="rect134" />
      <text
         fill="#ffffff"
         font-family="Calibri, Calibri_MSFontService, sans-serif"
         font-weight="400"
         font-size="20px"
         transform="translate(1072.3,194)"
         id="text136">Composition</text>
      <path
         d="M 0.00521147,-2.49999 74.8854,-2.3439 74.875,2.65609 -0.00521147,2.49999 Z M 72.3959,-7.3491 87.3802,0.182152 72.3646,7.65087 Z"
         transform="matrix(1,0,0,-1,949.5,187.682)"
         id="path138" />
      <path
         d="m 0,-2.5 h 46.1901 v 117.133 l -2.5,-2.5 h 31.1901 v 5 H 41.1901 V 0 l 2.5,2.5 H 0 Z m 72.3802,109.633 15,7.5 -15,7.5 z"
         transform="matrix(1,0,0,-1,949.5,302.133)"
         id="path140" />
      <path
         d="m 188.5,71 h 938.32 v 61.218 h -5 V 73.5 l 2.5,2.5 H 188.5 Z m 943.32,58.718 -7.5,15 -7.5,-15 z"
         id="path142" />
      <path
         d="m 104,344.951 v 151.667 l -2.5,-2.5 h 1023.04 l -2.5,2.5 V 243 h 5 V 499.118 H 98.9999 V 344.951 Z m 1013.04,-99.451 7.5,-15 7.5,15 z"
         id="path144" />
      <path
         d="M 0.00574618,-2.49999 66.812,-2.34644 66.8005,2.65355 -0.00574618,2.49999 Z M 64.3234,-7.35217 79.3062,0.182283 64.289,7.64779 Z"
         transform="matrix(1,0,0,-1,1211.5,187.682)"
         id="path146" />
      <path
         d="m 611,344.951 v 39.444 l -2.5,-2.5 h 515.56 l -2.5,2.5 V 243 h 5 V 386.895 H 606 v -41.944 z m 505.56,-99.451 7.5,-15 7.5,15 z"
         id="path148" />
      <rect
         x="1463"
         y="16"
         width="89"
         height="51"
         stroke="#000000"
         stroke-width="1.66667"
         stroke-miterlimit="8"
         stroke-dasharray="6.66667, 5"
         fill="#ffffff"
         id="rect150" />
      <text
         font-family="Calibri, Calibri_MSFontService, sans-serif"
         font-weight="400"
         font-size="17px"
         transform="translate(1486.08,37)"
         id="text152">Input/</text>
      <text
         font-family="Calibri, Calibri_MSFontService, sans-serif"
         font-weight="400"
         font-size="17px"
         transform="translate(1483.06,57)"
         id="text154">Output</text>
    </g>
  </g>
</svg>
