<?xml version="1.0" encoding="UTF-8" standalone="no"?>
<!-- Created with Inkscape (http://www.inkscape.org/) -->

<svg
   width="295.9624mm"
   height="86.851547mm"
   viewBox="0 0 295.9624 86.851547"
   version="1.1"
   id="svg317"
   xmlns="http://www.w3.org/2000/svg"
   xmlns:svg="http://www.w3.org/2000/svg">
  <defs
     id="defs314">
    <clipPath
       id="clip0">
      <rect
         x="152"
         y="465"
         width="1133"
         height="344"
         id="rect321" />
    </clipPath>
    <clipPath
       id="clip1">
      <rect
         x="857"
         y="464"
         width="427"
         height="320"
         id="rect324" />
    </clipPath>
    <clipPath
       id="clip2">
      <rect
         x="857"
         y="464"
         width="427"
         height="320"
         id="rect327" />
    </clipPath>
    <clipPath
       id="clip3">
      <rect
         x="857"
         y="464"
         width="427"
         height="320"
         id="rect330" />
    </clipPath>
    <clipPath
       id="clip4">
      <rect
         x="857"
         y="464"
         width="427"
         height="320"
         id="rect333" />
    </clipPath>
    <clipPath
       id="clip5">
      <rect
         x="857"
         y="464"
         width="427"
         height="320"
         id="rect336" />
    </clipPath>
    <clipPath
       id="clip6">
      <rect
         x="895"
         y="486"
         width="329"
         height="257"
         id="rect339" />
    </clipPath>
    <clipPath
       id="clip7">
      <rect
         x="857"
         y="464"
         width="427"
         height="320"
         id="rect342" />
    </clipPath>
    <clipPath
       id="clip8">
      <rect
         x="857"
         y="464"
         width="427"
         height="320"
         id="rect345" />
    </clipPath>
    <clipPath
       id="clip9">
      <rect
         x="857"
         y="464"
         width="427"
         height="320"
         id="rect348" />
    </clipPath>
    <clipPath
       id="clip10">
      <rect
         x="857"
         y="464"
         width="427"
         height="320"
         id="rect351" />
    </clipPath>
    <clipPath
       id="clip11">
      <rect
         x="857"
         y="464"
         width="427"
         height="320"
         id="rect354" />
    </clipPath>
    <clipPath
       id="clip12">
      <rect
         x="857"
         y="464"
         width="427"
         height="320"
         id="rect357" />
    </clipPath>
    <clipPath
       id="clip13">
      <rect
         x="857"
         y="464"
         width="427"
         height="320"
         id="rect360" />
    </clipPath>
    <clipPath
       id="clip14">
      <rect
         x="857"
         y="464"
         width="427"
         height="320"
         id="rect363" />
    </clipPath>
    <clipPath
       id="clip15">
      <rect
         x="857"
         y="464"
         width="427"
         height="320"
         id="rect366" />
    </clipPath>
    <clipPath
       id="clip16">
      <rect
         x="857"
         y="464"
         width="427"
         height="320"
         id="rect369" />
    </clipPath>
    <clipPath
       id="clip17">
      <rect
         x="857"
         y="464"
         width="427"
         height="320"
         id="rect372" />
    </clipPath>
    <clipPath
       id="clip18">
      <rect
         x="857"
         y="464"
         width="427"
         height="320"
         id="rect375" />
    </clipPath>
    <clipPath
       id="clip19">
      <rect
         x="857"
         y="464"
         width="427"
         height="320"
         id="rect378" />
    </clipPath>
    <clipPath
       id="clip20">
      <rect
         x="857"
         y="464"
         width="427"
         height="320"
         id="rect381" />
    </clipPath>
    <clipPath
       id="clip21">
      <rect
         x="857"
         y="464"
         width="427"
         height="320"
         id="rect384" />
    </clipPath>
    <clipPath
       id="clip22">
      <rect
         x="857"
         y="464"
         width="427"
         height="320"
         id="rect387" />
    </clipPath>
  </defs>
  <g
     id="layer1"
     transform="translate(64.630694,-80.409279)">
    <g
       clip-path="url(#clip0)"
       transform="matrix(0.26458333,0,0,0.26458333,-104.84736,-46.78709)"
       id="g592">
      <rect
         x="153"
         y="529"
         width="416"
         height="279"
         stroke="#000000"
         stroke-width="2"
         stroke-miterlimit="8"
         fill="#f2f2f2"
         id="rect392" />
      <path
         d="M 631,743 273,629.295 v -28.59 L 631,487 Z"
         stroke="#000000"
         stroke-width="2"
         stroke-miterlimit="8"
         fill="#595959"
         fill-rule="evenodd"
         fill-opacity="0.490196"
         id="path394" />
      <rect
         x="242"
         y="599"
         width="31"
         height="32"
         stroke="#000000"
         stroke-width="2"
         stroke-miterlimit="8"
         fill="#d9d9d9"
         id="rect396" />
      <rect
         x="672"
         y="487"
         width="52"
         height="51"
         stroke="#000000"
         stroke-width="2"
         stroke-miterlimit="8"
         fill="#d9d9d9"
         id="rect398" />
      <rect
         x="620"
         y="487"
         width="52"
         height="51"
         stroke="#000000"
         stroke-width="2"
         stroke-miterlimit="8"
         fill="#d9d9d9"
         id="rect400" />
      <rect
         x="672"
         y="535"
         width="52"
         height="52"
         stroke="#000000"
         stroke-width="2"
         stroke-miterlimit="8"
         fill="#d9d9d9"
         id="rect402" />
      <rect
         x="620"
         y="535"
         width="52"
         height="52"
         stroke="#000000"
         stroke-width="2"
         stroke-miterlimit="8"
         fill="#d9d9d9"
         id="rect404" />
      <rect
         x="672"
         y="587"
         width="52"
         height="52"
         stroke="#000000"
         stroke-width="2"
         stroke-miterlimit="8"
         fill="#d9d9d9"
         id="rect406" />
      <rect
         x="620"
         y="587"
         width="52"
         height="52"
         stroke="#000000"
         stroke-width="2"
         stroke-miterlimit="8"
         fill="#d9d9d9"
         id="rect408" />
      <rect
         x="724"
         y="487"
         width="52"
         height="51"
         stroke="#000000"
         stroke-width="2"
         stroke-miterlimit="8"
         fill="#d9d9d9"
         id="rect410" />
      <rect
         x="724"
         y="535"
         width="52"
         height="52"
         stroke="#000000"
         stroke-width="2"
         stroke-miterlimit="8"
         fill="#d9d9d9"
         id="rect412" />
      <rect
         x="724"
         y="587"
         width="52"
         height="52"
         stroke="#000000"
         stroke-width="2"
         stroke-miterlimit="8"
         fill="#d9d9d9"
         id="rect414" />
      <path
         d="m 743,613.5 c 0,-4.142 3.582,-7.5 8,-7.5 4.418,0 8,3.358 8,7.5 0,4.142 -3.582,7.5 -8,7.5 -4.418,0 -8,-3.358 -8,-7.5 z"
         fill-rule="evenodd"
         id="path416" />
      <rect
         x="776"
         y="487"
         width="52"
         height="51"
         stroke="#000000"
         stroke-width="2"
         stroke-miterlimit="8"
         fill="#d9d9d9"
         id="rect418" />
      <rect
         x="776"
         y="535"
         width="52"
         height="52"
         stroke="#000000"
         stroke-width="2"
         stroke-miterlimit="8"
         fill="#d9d9d9"
         id="rect420" />
      <rect
         x="776"
         y="587"
         width="52"
         height="52"
         stroke="#000000"
         stroke-width="2"
         stroke-miterlimit="8"
         fill="#d9d9d9"
         id="rect422" />
      <rect
         x="620"
         y="639"
         width="52"
         height="52"
         stroke="#000000"
         stroke-width="2"
         stroke-miterlimit="8"
         fill="#d9d9d9"
         id="rect424" />
      <rect
         x="724"
         y="639"
         width="52"
         height="52"
         stroke="#000000"
         stroke-width="2"
         stroke-miterlimit="8"
         fill="#d9d9d9"
         id="rect426" />
      <rect
         x="776"
         y="639"
         width="52"
         height="52"
         stroke="#000000"
         stroke-width="2"
         stroke-miterlimit="8"
         fill="#d9d9d9"
         id="rect428" />
      <rect
         x="672"
         y="639"
         width="52"
         height="52"
         stroke="#000000"
         stroke-width="2"
         stroke-miterlimit="8"
         fill="#d9d9d9"
         id="rect430" />
      <rect
         x="828"
         y="487"
         width="52"
         height="51"
         stroke="#000000"
         stroke-width="2"
         stroke-miterlimit="8"
         fill="#d9d9d9"
         id="rect432" />
      <rect
         x="828"
         y="535"
         width="52"
         height="52"
         stroke="#000000"
         stroke-width="2"
         stroke-miterlimit="8"
         fill="#d9d9d9"
         id="rect434" />
      <rect
         x="828"
         y="587"
         width="52"
         height="52"
         stroke="#000000"
         stroke-width="2"
         stroke-miterlimit="8"
         fill="#d9d9d9"
         id="rect436" />
      <rect
         x="828"
         y="639"
         width="52"
         height="52"
         stroke="#000000"
         stroke-width="2"
         stroke-miterlimit="8"
         fill="#d9d9d9"
         id="rect438" />
      <rect
         x="672"
         y="691"
         width="52"
         height="52"
         stroke="#000000"
         stroke-width="2"
         stroke-miterlimit="8"
         fill="#d9d9d9"
         id="rect440" />
      <rect
         x="620"
         y="691"
         width="52"
         height="52"
         stroke="#000000"
         stroke-width="2"
         stroke-miterlimit="8"
         fill="#d9d9d9"
         id="rect442" />
      <rect
         x="724"
         y="691"
         width="52"
         height="52"
         stroke="#000000"
         stroke-width="2"
         stroke-miterlimit="8"
         fill="#d9d9d9"
         id="rect444" />
      <rect
         x="776"
         y="691"
         width="52"
         height="52"
         stroke="#000000"
         stroke-width="2"
         stroke-miterlimit="8"
         fill="#d9d9d9"
         id="rect446" />
      <rect
         x="828"
         y="691"
         width="52"
         height="52"
         stroke="#000000"
         stroke-width="2"
         stroke-miterlimit="8"
         fill="#d9d9d9"
         id="rect448" />
      <path
         d="m 249,615 c 0,-4.418 3.582,-8 8,-8 4.418,0 8,3.582 8,8 0,4.418 -3.582,8 -8,8 -4.418,0 -8,-3.582 -8,-8 z"
         fill-rule="evenodd"
         id="path450" />
      <path
         d="m 743,664 c 0,-4.418 3.582,-8 8,-8 4.418,0 8,3.582 8,8 0,4.418 -3.582,8 -8,8 -4.418,0 -8,-3.582 -8,-8 z"
         fill="#bfbfbf"
         fill-rule="evenodd"
         id="path452" />
      <path
         d="m 743,717.5 c 0,-4.142 3.582,-7.5 8,-7.5 4.418,0 8,3.358 8,7.5 0,4.142 -3.582,7.5 -8,7.5 -4.418,0 -8,-3.358 -8,-7.5 z"
         fill="#bfbfbf"
         fill-rule="evenodd"
         id="path454" />
      <path
         d="m 742,561 c 0,-4.418 3.582,-8 8,-8 4.418,0 8,3.582 8,8 0,4.418 -3.582,8 -8,8 -4.418,0 -8,-3.582 -8,-8 z"
         fill="#bfbfbf"
         fill-rule="evenodd"
         id="path456" />
      <path
         d="m 742,510 c 0,-4.418 3.358,-8 7.5,-8 4.142,0 7.5,3.582 7.5,8 0,4.418 -3.358,8 -7.5,8 -4.142,0 -7.5,-3.582 -7.5,-8 z"
         fill="#bfbfbf"
         fill-rule="evenodd"
         id="path458" />
      <path
         d="m 795,613.5 c 0,-4.142 3.582,-7.5 8,-7.5 4.418,0 8,3.358 8,7.5 0,4.142 -3.582,7.5 -8,7.5 -4.418,0 -8,-3.358 -8,-7.5 z"
         fill="#bfbfbf"
         fill-rule="evenodd"
         id="path460" />
      <path
         d="m 796,664 c 0,-4.418 3.358,-8 7.5,-8 4.142,0 7.5,3.582 7.5,8 0,4.418 -3.358,8 -7.5,8 -4.142,0 -7.5,-3.582 -7.5,-8 z"
         fill="#bfbfbf"
         fill-rule="evenodd"
         id="path462" />
      <path
         d="m 795,717.5 c 0,-4.142 3.582,-7.5 8,-7.5 4.418,0 8,3.358 8,7.5 0,4.142 -3.582,7.5 -8,7.5 -4.418,0 -8,-3.358 -8,-7.5 z"
         fill="#bfbfbf"
         fill-rule="evenodd"
         id="path464" />
      <path
         d="m 795,561 c 0,-4.418 3.358,-8 7.5,-8 4.142,0 7.5,3.582 7.5,8 0,4.418 -3.358,8 -7.5,8 -4.142,0 -7.5,-3.582 -7.5,-8 z"
         fill="#bfbfbf"
         fill-rule="evenodd"
         id="path466" />
      <path
         d="m 794,510 c 0,-4.418 3.582,-8 8,-8 4.418,0 8,3.582 8,8 0,4.418 -3.582,8 -8,8 -4.418,0 -8,-3.582 -8,-8 z"
         fill="#bfbfbf"
         fill-rule="evenodd"
         id="path468" />
      <path
         d="m 845,613.5 c 0,-4.142 3.582,-7.5 8,-7.5 4.418,0 8,3.358 8,7.5 0,4.142 -3.582,7.5 -8,7.5 -4.418,0 -8,-3.358 -8,-7.5 z"
         fill="#bfbfbf"
         fill-rule="evenodd"
         id="path470" />
      <path
         d="m 846,664 c 0,-4.418 3.358,-8 7.5,-8 4.142,0 7.5,3.582 7.5,8 0,4.418 -3.358,8 -7.5,8 -4.142,0 -7.5,-3.582 -7.5,-8 z"
         fill="#bfbfbf"
         fill-rule="evenodd"
         id="path472" />
      <path
         d="m 845,717.5 c 0,-4.142 3.582,-7.5 8,-7.5 4.418,0 8,3.358 8,7.5 0,4.142 -3.582,7.5 -8,7.5 -4.418,0 -8,-3.358 -8,-7.5 z"
         fill="#bfbfbf"
         fill-rule="evenodd"
         id="path474" />
      <path
         d="m 845,561 c 0,-4.418 3.358,-8 7.5,-8 4.142,0 7.5,3.582 7.5,8 0,4.418 -3.358,8 -7.5,8 -4.142,0 -7.5,-3.582 -7.5,-8 z"
         fill="#bfbfbf"
         fill-rule="evenodd"
         id="path476" />
      <path
         d="m 844,510 c 0,-4.418 3.582,-8 8,-8 4.418,0 8,3.582 8,8 0,4.418 -3.582,8 -8,8 -4.418,0 -8,-3.582 -8,-8 z"
         fill="#bfbfbf"
         fill-rule="evenodd"
         id="path478" />
      <path
         d="m 690,613.5 c 0,-4.142 3.582,-7.5 8,-7.5 4.418,0 8,3.358 8,7.5 0,4.142 -3.582,7.5 -8,7.5 -4.418,0 -8,-3.358 -8,-7.5 z"
         fill="#bfbfbf"
         fill-rule="evenodd"
         id="path480" />
      <path
         d="m 691,664 c 0,-4.418 3.358,-8 7.5,-8 4.142,0 7.5,3.582 7.5,8 0,4.418 -3.358,8 -7.5,8 -4.142,0 -7.5,-3.582 -7.5,-8 z"
         fill="#bfbfbf"
         fill-rule="evenodd"
         id="path482" />
      <path
         d="m 690,717.5 c 0,-4.142 3.582,-7.5 8,-7.5 4.418,0 8,3.358 8,7.5 0,4.142 -3.582,7.5 -8,7.5 -4.418,0 -8,-3.358 -8,-7.5 z"
         fill="#bfbfbf"
         fill-rule="evenodd"
         id="path484" />
      <path
         d="m 690,561 c 0,-4.418 3.358,-8 7.5,-8 4.142,0 7.5,3.582 7.5,8 0,4.418 -3.358,8 -7.5,8 -4.142,0 -7.5,-3.582 -7.5,-8 z"
         fill="#bfbfbf"
         fill-rule="evenodd"
         id="path486" />
      <path
         d="m 689,510 c 0,-4.418 3.582,-8 8,-8 4.418,0 8,3.582 8,8 0,4.418 -3.582,8 -8,8 -4.418,0 -8,-3.582 -8,-8 z"
         fill="#bfbfbf"
         fill-rule="evenodd"
         id="path488" />
      <path
         d="m 640,613.5 c 0,-4.142 3.582,-7.5 8,-7.5 4.418,0 8,3.358 8,7.5 0,4.142 -3.582,7.5 -8,7.5 -4.418,0 -8,-3.358 -8,-7.5 z"
         fill="#bfbfbf"
         fill-rule="evenodd"
         id="path490" />
      <path
         d="m 640,664 c 0,-4.418 3.582,-8 8,-8 4.418,0 8,3.582 8,8 0,4.418 -3.582,8 -8,8 -4.418,0 -8,-3.582 -8,-8 z"
         fill="#bfbfbf"
         fill-rule="evenodd"
         id="path492" />
      <path
         d="m 640,717.5 c 0,-4.142 3.582,-7.5 8,-7.5 4.418,0 8,3.358 8,7.5 0,4.142 -3.582,7.5 -8,7.5 -4.418,0 -8,-3.358 -8,-7.5 z"
         fill="#bfbfbf"
         fill-rule="evenodd"
         id="path494" />
      <path
         d="m 639,561 c 0,-4.418 3.582,-8 8,-8 4.418,0 8,3.582 8,8 0,4.418 -3.582,8 -8,8 -4.418,0 -8,-3.582 -8,-8 z"
         fill="#bfbfbf"
         fill-rule="evenodd"
         id="path496" />
      <path
         d="m 639,510 c 0,-4.418 3.358,-8 7.5,-8 4.142,0 7.5,3.582 7.5,8 0,4.418 -3.358,8 -7.5,8 -4.142,0 -7.5,-3.582 -7.5,-8 z"
         fill="#bfbfbf"
         fill-rule="evenodd"
         id="path498" />
      <path
         d="m 10,-0.499992 169.663,1.41e-4 v 1 L 10,0.500008 Z M 12,6.00001 0,0 12,-5.99999 Z m 165.663,-11.99986 12,6.00000748 -12,5.99999252 z"
         transform="matrix(-1,0,0,1,846.163,614.5)"
         id="path500" />
      <path
         d="m 751.062,528.497 1.063,171.925 -1,0.006 -1.063,-171.925 z m -6.488,2.04 5.926,-12.037 6.074,11.963 z m 13.039,167.851 -5.926,12.037 -6.074,-11.962 z"
         id="path502" />
      <g
         clip-path="url(#clip1)"
         id="g506">
        <rect
           x="896"
           y="487"
           width="327"
           height="255"
           fill="#d9d9d9"
           id="rect504" />
      </g>
      <g
         clip-path="url(#clip2)"
         id="g510">
        <path
           d="m 896,742 h 327 M 896,657 h 327 M 896,614 h 327 M 896,572 h 327 M 896,529 h 327 M 896,487 h 327"
           stroke="#000000"
           stroke-width="1.5"
           stroke-linejoin="round"
           stroke-miterlimit="10"
           fill="none"
           id="path508" />
      </g>
      <g
         clip-path="url(#clip3)"
         id="g514">
        <path
           d="m 896,487 v 255 m 41,-255 v 255 m 41,-255 v 255 m 41,-255 v 255 m 41,-255 v 255 m 41,-255 v 255 m 41,-255 v 255 m 40,-255 v 255 m 41,-255 v 255"
           stroke="#000000"
           stroke-width="1.5"
           stroke-linejoin="round"
           stroke-miterlimit="10"
           fill="none"
           id="path512" />
      </g>
      <g
         clip-path="url(#clip4)"
         id="g518">
        <rect
           x="896"
           y="487"
           width="327"
           height="255"
           stroke="#000000"
           stroke-width="1.5"
           stroke-linejoin="round"
           stroke-miterlimit="10"
           fill="none"
           id="rect516" />
      </g>
      <g
         clip-path="url(#clip5)"
         id="g522">
        <path
           d="m 896,699 h 327"
           stroke="#d9d9d9"
           stroke-width="1.5"
           stroke-linejoin="round"
           stroke-miterlimit="10"
           fill="none"
           fill-rule="evenodd"
           id="path520" />
      </g>
      <g
         clip-path="url(#clip6)"
         id="g526">
        <path
           d="m 1223.5,699.757 c -106.28,0.155 -267.068,0.142 -318.847,0.465 -4.153,0.026 7.957,1.423 8.176,1.476 2.725,0.654 5.45,1.519 8.176,2.453 2.725,0.934 5.45,2.074 8.175,3.15 2.725,1.076 5.45,2.307 8.176,3.308 2.725,1 5.45,2.053 8.175,2.697 2.725,0.645 5.451,1.194 8.176,1.167 2.725,-0.027 5.45,-0.324 8.175,-1.329 2.725,-1.005 5.451,-2.464 8.176,-4.698 2.725,-2.235 5.45,-5.09 8.175,-8.709 2.726,-3.62 5.451,-7.982 8.176,-13.006 2.725,-5.024 5.45,-10.845 8.176,-17.138 2.725,-6.294 5.445,-13.353 8.175,-20.62 2.73,-7.267 5.45,-15.178 8.18,-22.982 2.72,-7.804 5.45,-16.042 8.17,-23.841 2.73,-7.799 5.45,-15.752 8.18,-22.952 2.72,-7.2 5.45,-14.231 8.17,-20.25 2.73,-6.018 5.45,-11.534 8.18,-15.863 2.72,-4.329 5.45,-7.848 8.17,-10.112 2.73,-2.264 5.45,-3.473 8.18,-3.473 2.72,0 5.45,1.209 8.17,3.473 2.73,2.264 5.45,5.783 8.18,10.112 2.73,4.329 5.45,9.845 8.18,15.863 2.72,6.019 5.45,13.05 8.17,20.25 2.73,7.2 5.45,15.153 8.18,22.952 2.72,7.799 5.45,16.037 8.17,23.841 2.73,7.804 5.45,15.715 8.18,22.982 2.72,7.267 5.45,14.326 8.17,20.62 2.73,6.293 5.45,12.114 8.18,17.138 2.72,5.024 5.45,9.386 8.17,13.006 2.73,3.619 5.45,6.474 8.18,8.709 2.73,2.234 5.45,3.693 8.18,4.698 2.72,1.005 5.45,1.302 8.17,1.329 2.73,0.027 5.45,-0.522 8.18,-1.167 2.72,-0.644 5.45,-1.697 8.17,-2.697 2.73,-1.001 5.45,-2.232 8.18,-3.308 2.72,-1.076 5.45,-2.216 8.17,-3.15 2.73,-0.934 5.45,-1.799 8.18,-2.453 2.72,-0.655 5.45,-1.152 8.17,-1.476 2.73,-0.323 5.45,-0.31 8.18,-0.465"
           stroke="#000000"
           stroke-width="4.5"
           stroke-linecap="round"
           stroke-linejoin="round"
           stroke-miterlimit="10"
           fill="none"
           id="path524" />
      </g>
      <g
         clip-path="url(#clip7)"
         id="g530">
        <text
           fill="#595959"
           font-family="Calibri, Calibri_MSFontService, sans-serif"
           font-weight="400"
           font-size="16px"
           transform="translate(1238.27,746)"
           id="text528">-0.25</text>
      </g>
      <g
         clip-path="url(#clip8)"
         id="g534">
        <text
           fill="#595959"
           font-family="Calibri, Calibri_MSFontService, sans-serif"
           font-weight="400"
           font-size="16px"
           transform="translate(1238.27,704)"
           id="text532">0</text>
      </g>
      <g
         clip-path="url(#clip9)"
         id="g538">
        <text
           fill="#595959"
           font-family="Calibri, Calibri_MSFontService, sans-serif"
           font-weight="400"
           font-size="16px"
           transform="translate(1238.27,661)"
           id="text536">0.25</text>
      </g>
      <g
         clip-path="url(#clip10)"
         id="g542">
        <text
           fill="#595959"
           font-family="Calibri, Calibri_MSFontService, sans-serif"
           font-weight="400"
           font-size="16px"
           transform="translate(1238.27,619)"
           id="text540">0.5</text>
      </g>
      <g
         clip-path="url(#clip11)"
         id="g546">
        <text
           fill="#595959"
           font-family="Calibri, Calibri_MSFontService, sans-serif"
           font-weight="400"
           font-size="16px"
           transform="translate(1238.27,576)"
           id="text544">0.75</text>
      </g>
      <g
         clip-path="url(#clip12)"
         id="g550">
        <text
           fill="#595959"
           font-family="Calibri, Calibri_MSFontService, sans-serif"
           font-weight="400"
           font-size="16px"
           transform="translate(1238.27,534)"
           id="text548">1</text>
      </g>
      <g
         clip-path="url(#clip13)"
         id="g554">
        <text
           fill="#595959"
           font-family="Calibri, Calibri_MSFontService, sans-serif"
           font-weight="400"
           font-size="16px"
           transform="translate(1238.27,491)"
           id="text552">1.25</text>
      </g>
      <g
         clip-path="url(#clip14)"
         id="g558">
        <text
           fill="#595959"
           font-family="Calibri, Calibri_MSFontService, sans-serif"
           font-weight="400"
           font-size="16px"
           transform="translate(879.36,767)"
           id="text556">-2.00</text>
      </g>
      <g
         clip-path="url(#clip15)"
         id="g562">
        <text
           fill="#595959"
           font-family="Calibri, Calibri_MSFontService, sans-serif"
           font-weight="400"
           font-size="16px"
           transform="translate(920.288,767)"
           id="text560">-1.50</text>
      </g>
      <g
         clip-path="url(#clip16)"
         id="g566">
        <text
           fill="#595959"
           font-family="Calibri, Calibri_MSFontService, sans-serif"
           font-weight="400"
           font-size="16px"
           transform="translate(961.217,767)"
           id="text564">-1.00</text>
      </g>
      <g
         clip-path="url(#clip17)"
         id="g570">
        <text
           fill="#595959"
           font-family="Calibri, Calibri_MSFontService, sans-serif"
           font-weight="400"
           font-size="16px"
           transform="translate(1002.15,767)"
           id="text568">-0.50</text>
      </g>
      <g
         clip-path="url(#clip18)"
         id="g574">
        <text
           fill="#595959"
           font-family="Calibri, Calibri_MSFontService, sans-serif"
           font-weight="400"
           font-size="16px"
           transform="translate(1045.52,767)"
           id="text572">0.00</text>
      </g>
      <g
         clip-path="url(#clip19)"
         id="g578">
        <text
           fill="#595959"
           font-family="Calibri, Calibri_MSFontService, sans-serif"
           font-weight="400"
           font-size="16px"
           transform="translate(1086.45,767)"
           id="text576">0.50</text>
      </g>
      <g
         clip-path="url(#clip20)"
         id="g582">
        <text
           fill="#595959"
           font-family="Calibri, Calibri_MSFontService, sans-serif"
           font-weight="400"
           font-size="16px"
           transform="translate(1127.38,767)"
           id="text580">1.00</text>
      </g>
      <g
         clip-path="url(#clip21)"
         id="g586">
        <text
           fill="#595959"
           font-family="Calibri, Calibri_MSFontService, sans-serif"
           font-weight="400"
           font-size="16px"
           transform="translate(1168.31,767)"
           id="text584">1.50</text>
      </g>
      <g
         clip-path="url(#clip22)"
         id="g590">
        <text
           fill="#595959"
           font-family="Calibri, Calibri_MSFontService, sans-serif"
           font-weight="400"
           font-size="16px"
           transform="translate(1209.24,767)"
           id="text588">2.00</text>
      </g>
    </g>
  </g>
</svg>
